# xmcd
#
# Track frame offsets: 
#        150
#        20088
#        30130
#        41293
#        56786
#        70581
#        81697
#        90080
#        100378
#        135501
#        165710
#        186898
#        209218
#        224961
#
# Disc length: 3381 seconds
#
# Revision: 2
# Processed by: cddbd v1.5.2PL0 Copyright (c) Steve Scherf et al.
# Submitted via: ExactAudioCopyFreeDBPlugin 1.0
#
DISCID=c90d330e
DTITLE=Aretha Franklin - Oh Me Oh My:  Aretha Live in Philly, 1972
DYEAR=2007
DGENRE=Soul
TTITLE0=Introduction (Also Sprach Zarathustra) - Rock Steady
TTITLE1=This Girl's in Love with You
TTITLE2=Medley:  I Never Loved a Man (The Way I Love You) - I Say a Li
TTITLE2=ttle Prayer
TTITLE3=Medley:  Day Dreaming - Think
TTITLE4=Spanish Harlem
TTITLE5=Medley:  Chain of Fools - See Saw
TTITLE6=Don't Play That Song
TTITLE7=Respect
TTITLE8=Medley:  Bridge Over Troubled Water - We've Only Just Begun
TTITLE9=Young, Gifted and Black  (instrumental)
TTITLE10=Oh Me Oh My (I'm A Fool for You Baby)
TTITLE11=That's the Way I Feel About Cha
TTITLE12=April Fools
TTITLE13=Spirit in the Dark
EXTD=
EXTT0=
EXTT1=
EXTT2=
EXTT3=
EXTT4=
EXTT5=
EXTT6=
EXTT7=
EXTT8=
EXTT9=
EXTT10=
EXTT11=
EXTT12=
EXTT13=
PLAYORDER=
